<!--?xml version="1.0" standalone="no"?-->
              <svg id="sw-js-blob-svg" viewBox="0 0 100 100" xmlns="http://www.w3.org/2000/svg" version="1.1">
                    <defs> 
                        <linearGradient id="sw-gradient" x1="0" x2="1" y1="1" y2="0">
                            <stop id="stop1" stop-color="rgba(248, 117, 55, 1)" offset="0%"></stop>
                            <stop id="stop2" stop-color="rgba(251, 168, 31, 1)" offset="100%"></stop>
                        </linearGradient>
                    </defs>
                <path fill="url(#sw-gradient)" d="M22.5,-34.3C29.1,-30.8,34.4,-24.4,35.9,-17.5C37.4,-10.5,35.2,-2.9,32.9,3.9C30.6,10.6,28.3,16.5,25.1,23.7C21.9,30.9,18,39.4,11.6,42.8C5.1,46.3,-3.8,44.7,-10.7,40.8C-17.7,36.8,-22.6,30.3,-27.7,24.2C-32.8,18,-38,12.1,-38.5,5.8C-39,-0.5,-34.8,-7.2,-30.7,-13.1C-26.6,-19,-22.6,-24,-17.5,-28.3C-12.4,-32.5,-6.2,-36,0.9,-37.3C8,-38.7,15.9,-37.9,22.5,-34.3Z" width="100%" height="100%" transform="translate(50 50)" stroke-width="0" style="transition: all 0.3s ease 0s;"></path>
              </svg>