<!--?xml version="1.0" standalone="no"?-->
              <svg id="sw-js-blob-svg" viewBox="0 0 100 100" xmlns="http://www.w3.org/2000/svg" version="1.1">
                    <defs> 
                        <linearGradient id="sw-gradient" x1="0" x2="1" y1="1" y2="0">
                            <stop id="stop1" stop-color="rgba(67.89, 81.307, 255, 1)" offset="0%"></stop>
                            <stop id="stop2" stop-color="rgba(31, 251, 231.621, 1)" offset="100%"></stop>
                        </linearGradient>
                    </defs>
                <path fill="url(#sw-gradient)" d="M24.9,-34.1C32.2,-34,38.1,-27.1,39,-19.5C39.8,-11.9,35.6,-3.7,30.1,1.2C24.6,6.2,17.8,7.8,14.4,13.4C11,19.1,11.1,28.7,8.7,29.3C6.2,29.9,1.2,21.5,-6.7,20.4C-14.6,19.2,-25.3,25.2,-28.7,23.6C-32.1,22,-28.3,12.7,-28.2,4.8C-28.1,-3.1,-31.9,-9.7,-31.3,-15.7C-30.8,-21.8,-25.9,-27.3,-20,-27.9C-14,-28.6,-7,-24.5,0.9,-25.9C8.8,-27.2,17.5,-34.1,24.9,-34.1Z" width="100%" height="100%" transform="translate(50 50)" stroke-width="0" style="transition: all 0.3s ease 0s;"></path>
              </svg>